<?xml version="1.0" encoding="UTF-8" standalone="no"?>
<!DOCTYPE svg PUBLIC "-//W3C//DTD SVG 1.1//EN" "http://www.w3.org/Graphics/SVG/1.1/DTD/svg11.dtd">
<svg width="100%" height="100%" viewBox="0 0 2048 2048" version="1.1" xmlns="http://www.w3.org/2000/svg" xmlns:xlink="http://www.w3.org/1999/xlink" xml:space="preserve" xmlns:serif="http://www.serif.com/" style="fill-rule:evenodd;clip-rule:evenodd;stroke-linejoin:round;stroke-miterlimit:2;">
    <rect id="Artboard1" x="0" y="0" width="2048" height="2048" style="fill:none;"/>
    <g id="Artboard11" serif:id="Artboard1">
        <g transform="matrix(1.41107,0,0,1.41107,-711.82,-444.178)">
            <path d="M1057.87,1665.97L1057.87,1745.56C740.396,1668.14 504.455,1381.64 504.455,1040.47C504.455,639.952 829.626,314.781 1230.15,314.781C1630.67,314.781 1955.84,639.952 1955.84,1040.47C1955.84,1381.64 1719.89,1668.14 1402.42,1745.56L1402.42,1444.67C1402.42,1397.13 1363.82,1358.53 1316.28,1358.53L1281.37,1358.53L1281.37,1262.79C1635.24,1247.15 1623.51,1066.63 1623.51,971.932C1623.51,933.505 1624.57,879.389 1602.49,827.544C1658.94,765.636 1568.6,602.791 1568.6,602.791C1568.6,602.791 1401.33,612.763 1362.55,678.62C1324.35,672.831 1280.56,669.633 1230.36,669.633C1172.17,669.633 1122.59,673.93 1080.34,681.58C1043.9,608.941 861.697,598.078 861.697,598.078C861.697,598.078 746.013,806.616 849.814,850.832C836.445,895.182 837.213,939.236 837.213,971.932C837.213,1066.77 809.463,1247.69 1178.92,1262.86L1178.92,1358.53L1144.01,1358.53C1096.47,1358.53 1057.87,1397.13 1057.87,1444.67L1057.87,1575.16C1036.25,1566.1 1011.8,1554.07 987.721,1538.5C944.418,1510.51 901.695,1470.89 881.929,1414.6C845.709,1311.46 817.135,1217.18 777.292,1161.41C741.593,1111.45 697.449,1087.03 638.752,1095.7C615.581,1099.13 599.549,1120.72 602.974,1143.89C606.398,1167.06 627.99,1183.09 651.16,1179.67C685.356,1174.62 704.548,1200.31 723.513,1235.75C751.647,1288.32 773.799,1362.85 801.846,1442.72C828.274,1517.98 883.741,1572.35 941.638,1609.78C983.257,1636.69 1025.82,1654.7 1057.87,1665.97Z" style="fill:url(#_Linear1);"/>
        </g>
    </g>
    <defs>
        <linearGradient id="_Linear1" x1="0" y1="0" x2="1" y2="0" gradientUnits="userSpaceOnUse" gradientTransform="matrix(1.22138e-13,1994.66,-1994.66,1.22138e-13,1294.64,481.33)"><stop offset="0" style="stop-color:rgb(32,32,32);stop-opacity:1"/><stop offset="1" style="stop-color:rgb(102,102,102);stop-opacity:1"/></linearGradient>
    </defs>
</svg>
