<?xml version="1.0" encoding="UTF-8" standalone="no"?>
<!DOCTYPE svg PUBLIC "-//W3C//DTD SVG 1.1//EN" "http://www.w3.org/Graphics/SVG/1.1/DTD/svg11.dtd">
<svg width="100%" height="100%" viewBox="0 0 2048 2048" version="1.1" xmlns="http://www.w3.org/2000/svg" xmlns:xlink="http://www.w3.org/1999/xlink" xml:space="preserve" xmlns:serif="http://www.serif.com/" style="fill-rule:evenodd;clip-rule:evenodd;stroke-linejoin:round;stroke-miterlimit:2;">
    <rect id="Artboard1" x="0" y="0" width="2048" height="2048" style="fill:none;"/>
    <g id="Artboard11" serif:id="Artboard1">
        <path d="M346.41,700L1472.24,50L1818.65,250L1818.65,1350L692.82,2000L346.41,1800L346.41,700Z" style="fill:url(#_Linear1);"/>
        <path d="M346.41,700L1472.24,50L1818.65,250L692.82,900L346.41,700ZM692.82,600L866.025,700L1472.24,350L1299.04,250L692.82,600Z" style="fill:url(#_Linear2);"/>
        <path d="M692.82,2000L692.82,1600L1818.65,950L1818.65,1350L692.82,2000Z" style="fill:url(#_Linear3);"/>
        <path d="M346.41,700L692.82,900L692.82,2000L346.41,1800L346.41,700Z" style="fill:rgb(195,90,1);"/>
        <path d="M1125.83,1350L1125.83,1150L1385.64,1000L1385.64,1200L1125.83,1350Z" style="fill:url(#_Linear4);"/>
        <path d="M692.82,600L1299.04,250L1472.24,350L866.025,700L692.82,600Z" style="fill:url(#_Linear5);"/>
    </g>
    <defs>
        <linearGradient id="_Linear1" x1="0" y1="0" x2="1" y2="0" gradientUnits="userSpaceOnUse" gradientTransform="matrix(-326.801,-411.322,411.322,-326.801,889.717,1286.32)"><stop offset="0" style="stop-color:rgb(254,166,92);stop-opacity:1"/><stop offset="1" style="stop-color:rgb(226,104,0);stop-opacity:1"/></linearGradient>
        <linearGradient id="_Linear2" x1="0" y1="0" x2="1" y2="0" gradientUnits="userSpaceOnUse" gradientTransform="matrix(169.677,333.025,-333.025,169.677,579.381,734.506)"><stop offset="0" style="stop-color:rgb(254,166,92);stop-opacity:1"/><stop offset="1" style="stop-color:rgb(226,104,0);stop-opacity:1"/></linearGradient>
        <linearGradient id="_Linear3" x1="0" y1="0" x2="1" y2="0" gradientUnits="userSpaceOnUse" gradientTransform="matrix(-86.6025,-150,150,-86.6025,1125.83,1450)"><stop offset="0" style="stop-color:rgb(254,144,51);stop-opacity:1"/><stop offset="1" style="stop-color:rgb(193,89,0);stop-opacity:1"/></linearGradient>
        <linearGradient id="_Linear4" x1="0" y1="0" x2="1" y2="0" gradientUnits="userSpaceOnUse" gradientTransform="matrix(20.7222,-191.828,191.828,20.7222,1185.02,1215.83)"><stop offset="0" style="stop-color:rgb(254,210,35);stop-opacity:1"/><stop offset="0.5" style="stop-color:rgb(255,230,128);stop-opacity:1"/><stop offset="1" style="stop-color:rgb(255,219,75);stop-opacity:1"/></linearGradient>
        <linearGradient id="_Linear5" x1="0" y1="0" x2="1" y2="0" gradientUnits="userSpaceOnUse" gradientTransform="matrix(-312.343,362.745,-362.745,-312.343,1336.34,228.462)"><stop offset="0" style="stop-color:rgb(254,210,35);stop-opacity:1"/><stop offset="0.5" style="stop-color:rgb(245,221,125);stop-opacity:1"/><stop offset="1" style="stop-color:rgb(255,219,75);stop-opacity:1"/></linearGradient>
    </defs>
</svg>
