<?xml version="1.0" encoding="UTF-8" standalone="no"?>
<!DOCTYPE svg PUBLIC "-//W3C//DTD SVG 1.1//EN" "http://www.w3.org/Graphics/SVG/1.1/DTD/svg11.dtd">
<svg width="100%" height="100%" viewBox="0 0 2048 2048" version="1.1" xmlns="http://www.w3.org/2000/svg" xmlns:xlink="http://www.w3.org/1999/xlink" xml:space="preserve" xmlns:serif="http://www.serif.com/" style="fill-rule:evenodd;clip-rule:evenodd;stroke-linejoin:round;stroke-miterlimit:2;">
    <rect id="Artboard1" x="0" y="0" width="2048" height="2048" style="fill:none;"/>
    <clipPath id="_clip1">
        <rect id="Artboard11" serif:id="Artboard1" x="0" y="0" width="2048" height="2048"/>
    </clipPath>
    <g clip-path="url(#_clip1)">
        <path d="M2048,1448.15C2019.08,1476.48 1962.25,1532.13 1929.91,1507.65C1929.21,1507.03 1928.51,1506.41 1927.8,1505.8C1927.36,1505.41 1926.92,1505.03 1926.48,1504.64C1906.93,1487.67 1886.49,1471.89 1865.3,1457.11C1811.97,1419.92 1753.9,1389.06 1693.37,1361.49C1622.02,1393.42 1555.31,1438.56 1496.93,1496.93C1438.56,1555.31 1393.42,1622.02 1361.49,1693.37C1389.06,1753.9 1419.92,1811.97 1457.11,1865.3C1471.89,1886.49 1487.67,1906.93 1504.64,1926.48C1505.03,1926.92 1505.41,1927.36 1505.8,1927.8C1506.41,1928.51 1507.03,1929.21 1507.65,1929.91C1532.13,1962.25 1476.48,2019.08 1448.15,2048L1024,1024L2048,1448.15ZM1302.23,1550.2C1362.67,1534.45 1416.95,1504.92 1460.93,1460.93C1504.92,1416.95 1534.45,1362.67 1550.2,1302.23C1408.42,1247.45 1263.09,1197.42 1140.28,1117.34C1136.92,1121.51 1133.3,1125.54 1129.42,1129.42C1125.54,1133.3 1121.51,1136.92 1117.34,1140.28C1197.42,1263.09 1247.45,1408.42 1302.23,1550.2Z"/>
        <g transform="matrix(0.78288,0,0,0.830044,245.227,275.215)">
            <rect x="-313.237" y="-331.566" width="2615.98" height="2467.34" style="fill:none;"/>
        </g>
        <path d="M1592.81,1199.34C1453.83,1137.82 1315.69,1070.44 1172.22,1040.23C1172.8,1034.9 1173.09,1029.48 1173.09,1024C1173.09,1018.52 1172.8,1013.1 1172.22,1007.77C1315.69,977.564 1453.83,910.177 1592.81,848.659C1624.42,902.53 1641.92,961.794 1641.92,1024C1641.92,1086.21 1624.42,1145.47 1592.81,1199.34Z" style="fill:white;"/>
        <path d="M1448.15,0C1476.48,28.924 1532.13,85.754 1507.65,118.085C1507.03,118.788 1506.41,119.492 1505.8,120.197C1505.41,120.638 1505.03,121.079 1504.64,121.52C1487.67,141.07 1471.89,161.513 1457.11,182.704C1419.92,236.029 1389.06,294.099 1361.49,354.628C1393.42,425.984 1438.56,492.688 1496.93,551.066C1555.31,609.444 1622.02,654.583 1693.37,686.515C1753.9,658.939 1811.97,628.08 1865.3,590.888C1886.49,576.108 1906.93,560.328 1926.48,543.356C1926.92,542.973 1927.36,542.589 1927.8,542.204C1928.51,541.589 1929.21,540.972 1929.91,540.354C1962.25,515.865 2019.08,571.52 2048,599.845L1024,1024L1448.15,0ZM1550.2,745.773C1534.45,685.329 1504.92,631.052 1460.93,587.066C1416.95,543.08 1362.67,513.545 1302.23,497.804C1247.45,639.578 1197.42,784.906 1117.34,907.716C1121.51,911.081 1125.54,914.702 1129.42,918.579C1133.3,922.456 1136.92,926.491 1140.28,930.665C1263.09,850.576 1408.42,800.547 1550.2,745.773Z" style="fill:white;"/>
        <path d="M1199.34,455.188C1137.82,594.168 1070.44,732.306 1040.23,875.777C1034.9,875.205 1029.48,874.912 1024,874.912C1018.52,874.912 1013.1,875.205 1007.77,875.777C977.564,732.306 910.177,594.168 848.659,455.188C902.53,423.577 961.794,406.083 1024,406.083C1086.21,406.083 1145.47,423.577 1199.34,455.188Z" style="fill:white;"/>
        <path d="M-0,599.845C28.924,571.52 85.754,515.865 118.085,540.354C118.788,540.972 119.492,541.589 120.197,542.204C120.638,542.589 121.079,542.973 121.52,543.356C141.07,560.328 161.513,576.108 182.704,590.888C236.029,628.08 294.099,658.939 354.628,686.515C425.984,654.583 492.688,609.444 551.066,551.066C609.444,492.688 654.583,425.984 686.515,354.628C658.939,294.099 628.08,236.029 590.888,182.704C576.108,161.513 560.328,141.07 543.356,121.52C542.973,121.079 542.589,120.638 542.204,120.197C541.589,119.492 540.972,118.788 540.354,118.085C515.865,85.754 571.52,28.924 599.845,0L1024,1024L-0,599.845ZM745.773,497.804C685.329,513.545 631.052,543.08 587.066,587.066C543.08,631.052 513.545,685.329 497.804,745.773C639.578,800.547 784.906,850.576 907.716,930.665C911.081,926.491 914.702,922.456 918.579,918.579C922.456,914.702 926.491,911.081 930.665,907.716C850.576,784.906 800.547,639.578 745.773,497.804Z" style="fill:white;"/>
        <path d="M455.188,848.659C594.168,910.177 732.306,977.564 875.777,1007.77C875.205,1013.1 874.912,1018.52 874.912,1024C874.912,1029.48 875.205,1034.9 875.777,1040.23C732.306,1070.44 594.168,1137.82 455.188,1199.34C423.577,1145.47 406.083,1086.21 406.083,1024C406.083,961.794 423.577,902.53 455.188,848.659Z" style="fill:white;"/>
        <path d="M599.845,2048C571.52,2019.08 515.865,1962.25 540.354,1929.91C540.972,1929.21 541.589,1928.51 542.204,1927.8C542.589,1927.36 542.973,1926.92 543.356,1926.48C560.328,1906.93 576.108,1886.49 590.888,1865.3C628.08,1811.97 658.939,1753.9 686.515,1693.37C654.583,1622.02 609.444,1555.31 551.066,1496.93C492.688,1438.56 425.984,1393.42 354.628,1361.49C294.099,1389.06 236.029,1419.92 182.704,1457.11C161.513,1471.89 141.07,1487.67 121.52,1504.64C121.079,1505.03 120.638,1505.41 120.197,1505.8C119.492,1506.41 118.788,1507.03 118.085,1507.65C85.754,1532.13 28.924,1476.48 -0,1448.15L1024,1024L599.845,2048ZM497.804,1302.23C513.545,1362.67 543.08,1416.95 587.066,1460.93C631.052,1504.92 685.329,1534.45 745.773,1550.2C800.547,1408.42 850.576,1263.09 930.665,1140.28C926.491,1136.92 922.456,1133.3 918.579,1129.42C914.702,1125.54 911.081,1121.51 907.716,1117.34C784.906,1197.42 639.578,1247.45 497.804,1302.23Z"/>
        <path d="M848.659,1592.81C910.177,1453.83 977.564,1315.69 1007.77,1172.22C1013.1,1172.8 1018.52,1173.09 1024,1173.09C1029.48,1173.09 1034.9,1172.8 1040.23,1172.22C1070.44,1315.69 1137.82,1453.83 1199.34,1592.81C1145.47,1624.42 1086.21,1641.92 1024,1641.92C961.794,1641.92 902.53,1624.42 848.659,1592.81Z" style="fill:white;"/>
        <path d="M599.845,2048L1024,1024L1448.15,2048C1407.67,2047.58 1328.13,2046.75 1322.59,2006.57C1322.53,2005.63 1322.47,2004.7 1322.4,2003.77C1322.37,2003.18 1322.32,2002.6 1322.28,2002.02C1320.46,1976.19 1317.16,1950.58 1312.63,1925.14C1301.22,1861.14 1281.98,1798.26 1258.68,1735.96C1185.64,1708.08 1106.56,1692.83 1024,1692.83C941.441,1692.83 862.356,1708.08 789.32,1735.96C766.019,1798.26 746.778,1861.14 735.37,1925.14C730.837,1950.58 727.54,1976.19 725.717,2002.02C725.676,2002.6 725.635,2003.18 725.596,2003.77C725.532,2004.7 725.47,2005.63 725.411,2006.57C719.866,2046.75 640.327,2047.58 599.845,2048ZM848.659,1592.81C902.53,1624.42 961.794,1641.92 1024,1641.92C1086.21,1641.92 1145.47,1624.42 1199.34,1592.81C1137.82,1453.83 1070.44,1315.69 1040.23,1172.22C1034.9,1172.8 1029.48,1173.09 1024,1173.09C1018.52,1173.09 1013.1,1172.8 1007.77,1172.22C977.564,1315.69 910.177,1453.83 848.659,1592.81Z" style="fill:none;"/>
        <g transform="matrix(0.707107,0.707107,-0.707107,0.707107,1024,-424.155)">
            <path d="M599.845,2048L1024,1024L1448.15,2048C1407.67,2047.58 1328.13,2046.75 1322.59,2006.57C1322.53,2005.63 1322.47,2004.7 1322.4,2003.77C1322.37,2003.18 1322.32,2002.6 1322.28,2002.02C1320.46,1976.19 1317.16,1950.58 1312.63,1925.14C1301.22,1861.14 1281.98,1798.26 1258.68,1735.96C1185.64,1708.08 1106.56,1692.83 1024,1692.83C941.441,1692.83 862.356,1708.08 789.32,1735.96C766.019,1798.26 746.778,1861.14 735.37,1925.14C730.837,1950.58 727.54,1976.19 725.717,2002.02C725.676,2002.6 725.635,2003.18 725.596,2003.77C725.532,2004.7 725.47,2005.63 725.411,2006.57C719.866,2046.75 640.327,2047.58 599.845,2048ZM848.659,1592.81C902.53,1624.42 961.794,1641.92 1024,1641.92C1086.21,1641.92 1145.47,1624.42 1199.34,1592.81C1137.82,1453.83 1070.44,1315.69 1040.23,1172.22C1034.9,1172.8 1029.48,1173.09 1024,1173.09C1018.52,1173.09 1013.1,1172.8 1007.77,1172.22C977.564,1315.69 910.177,1453.83 848.659,1592.81Z" style="fill:white;"/>
        </g>
        <g transform="matrix(5.55112e-17,1,-1,5.55112e-17,2048,6.11067e-13)">
            <path d="M599.845,2048L1024,1024L1448.15,2048C1407.67,2047.58 1328.13,2046.75 1322.59,2006.57C1322.53,2005.63 1322.47,2004.7 1322.4,2003.77C1322.37,2003.18 1322.32,2002.6 1322.28,2002.02C1320.46,1976.19 1317.16,1950.58 1312.63,1925.14C1301.22,1861.14 1281.98,1798.26 1258.68,1735.96C1185.64,1708.08 1106.56,1692.83 1024,1692.83C941.441,1692.83 862.356,1708.08 789.32,1735.96C766.019,1798.26 746.778,1861.14 735.37,1925.14C730.837,1950.58 727.54,1976.19 725.717,2002.02C725.676,2002.6 725.635,2003.18 725.596,2003.77C725.532,2004.7 725.47,2005.63 725.411,2006.57C719.866,2046.75 640.327,2047.58 599.845,2048ZM848.659,1592.81C902.53,1624.42 961.794,1641.92 1024,1641.92C1086.21,1641.92 1145.47,1624.42 1199.34,1592.81C1137.82,1453.83 1070.44,1315.69 1040.23,1172.22C1034.9,1172.8 1029.48,1173.09 1024,1173.09C1018.52,1173.09 1013.1,1172.8 1007.77,1172.22C977.564,1315.69 910.177,1453.83 848.659,1592.81Z" style="fill:none;"/>
        </g>
        <g transform="matrix(-0.707107,0.707107,-0.707107,-0.707107,2472.15,1024)">
            <path d="M599.845,2048L1024,1024L1448.15,2048C1407.67,2047.58 1328.13,2046.75 1322.59,2006.57C1322.53,2005.63 1322.47,2004.7 1322.4,2003.77C1322.37,2003.18 1322.32,2002.6 1322.28,2002.02C1320.46,1976.19 1317.16,1950.58 1312.63,1925.14C1301.22,1861.14 1281.98,1798.26 1258.68,1735.96C1185.64,1708.08 1106.56,1692.83 1024,1692.83C941.441,1692.83 862.356,1708.08 789.32,1735.96C766.019,1798.26 746.778,1861.14 735.37,1925.14C730.837,1950.58 727.54,1976.19 725.717,2002.02C725.676,2002.6 725.635,2003.18 725.596,2003.77C725.532,2004.7 725.47,2005.63 725.411,2006.57C719.866,2046.75 640.327,2047.58 599.845,2048ZM848.659,1592.81C902.53,1624.42 961.794,1641.92 1024,1641.92C1086.21,1641.92 1145.47,1624.42 1199.34,1592.81C1137.82,1453.83 1070.44,1315.69 1040.23,1172.22C1034.9,1172.8 1029.48,1173.09 1024,1173.09C1018.52,1173.09 1013.1,1172.8 1007.77,1172.22C977.564,1315.69 910.177,1453.83 848.659,1592.81Z" style="fill:none;"/>
        </g>
        <g transform="matrix(-1,2.22045e-16,-2.22045e-16,-1,2048,2048)">
            <path d="M599.845,2048L1024,1024L1448.15,2048C1407.67,2047.58 1328.13,2046.75 1322.59,2006.57C1322.53,2005.63 1322.47,2004.7 1322.4,2003.77C1322.37,2003.18 1322.32,2002.6 1322.28,2002.02C1320.46,1976.19 1317.16,1950.58 1312.63,1925.14C1301.22,1861.14 1281.98,1798.26 1258.68,1735.96C1185.64,1708.08 1106.56,1692.83 1024,1692.83C941.441,1692.83 862.356,1708.08 789.32,1735.96C766.019,1798.26 746.778,1861.14 735.37,1925.14C730.837,1950.58 727.54,1976.19 725.717,2002.02C725.676,2002.6 725.635,2003.18 725.596,2003.77C725.532,2004.7 725.47,2005.63 725.411,2006.57C719.866,2046.75 640.327,2047.58 599.845,2048ZM848.659,1592.81C902.53,1624.42 961.794,1641.92 1024,1641.92C1086.21,1641.92 1145.47,1624.42 1199.34,1592.81C1137.82,1453.83 1070.44,1315.69 1040.23,1172.22C1034.9,1172.8 1029.48,1173.09 1024,1173.09C1018.52,1173.09 1013.1,1172.8 1007.77,1172.22C977.564,1315.69 910.177,1453.83 848.659,1592.81Z" style="fill:none;"/>
        </g>
        <g transform="matrix(-0.707107,-0.707107,0.707107,-0.707107,1024,2472.15)">
            <path d="M599.845,2048L1024,1024L1448.15,2048C1407.67,2047.58 1328.13,2046.75 1322.59,2006.57C1322.53,2005.63 1322.47,2004.7 1322.4,2003.77C1322.37,2003.18 1322.32,2002.6 1322.28,2002.02C1320.46,1976.19 1317.16,1950.58 1312.63,1925.14C1301.22,1861.14 1281.98,1798.26 1258.68,1735.96C1185.64,1708.08 1106.56,1692.83 1024,1692.83C941.441,1692.83 862.356,1708.08 789.32,1735.96C766.019,1798.26 746.778,1861.14 735.37,1925.14C730.837,1950.58 727.54,1976.19 725.717,2002.02C725.676,2002.6 725.635,2003.18 725.596,2003.77C725.532,2004.7 725.47,2005.63 725.411,2006.57C719.866,2046.75 640.327,2047.58 599.845,2048ZM848.659,1592.81C902.53,1624.42 961.794,1641.92 1024,1641.92C1086.21,1641.92 1145.47,1624.42 1199.34,1592.81C1137.82,1453.83 1070.44,1315.69 1040.23,1172.22C1034.9,1172.8 1029.48,1173.09 1024,1173.09C1018.52,1173.09 1013.1,1172.8 1007.77,1172.22C977.564,1315.69 910.177,1453.83 848.659,1592.81Z" style="fill:none;"/>
        </g>
        <g transform="matrix(-2.77556e-16,-1,1,-2.77556e-16,-1.65556e-12,2048)">
            <path d="M599.845,2048L1024,1024L1448.15,2048C1407.67,2047.58 1328.13,2046.75 1322.59,2006.57C1322.53,2005.63 1322.47,2004.7 1322.4,2003.77C1322.37,2003.18 1322.32,2002.6 1322.28,2002.02C1320.46,1976.19 1317.16,1950.58 1312.63,1925.14C1301.22,1861.14 1281.98,1798.26 1258.68,1735.96C1185.64,1708.08 1106.56,1692.83 1024,1692.83C941.441,1692.83 862.356,1708.08 789.32,1735.96C766.019,1798.26 746.778,1861.14 735.37,1925.14C730.837,1950.58 727.54,1976.19 725.717,2002.02C725.676,2002.6 725.635,2003.18 725.596,2003.77C725.532,2004.7 725.47,2005.63 725.411,2006.57C719.866,2046.75 640.327,2047.58 599.845,2048ZM848.659,1592.81C902.53,1624.42 961.794,1641.92 1024,1641.92C1086.21,1641.92 1145.47,1624.42 1199.34,1592.81C1137.82,1453.83 1070.44,1315.69 1040.23,1172.22C1034.9,1172.8 1029.48,1173.09 1024,1173.09C1018.52,1173.09 1013.1,1172.8 1007.77,1172.22C977.564,1315.69 910.177,1453.83 848.659,1592.81Z" style="fill:none;"/>
        </g>
        <g transform="matrix(0.707107,-0.707107,0.707107,0.707107,-424.155,1024)">
            <path d="M599.845,2048L1024,1024L1448.15,2048C1407.67,2047.58 1328.13,2046.75 1322.59,2006.57C1322.53,2005.63 1322.47,2004.7 1322.4,2003.77C1322.37,2003.18 1322.32,2002.6 1322.28,2002.02C1320.46,1976.19 1317.16,1950.58 1312.63,1925.14C1301.22,1861.14 1281.98,1798.26 1258.68,1735.96C1185.64,1708.08 1106.56,1692.83 1024,1692.83C941.441,1692.83 862.356,1708.08 789.32,1735.96C766.019,1798.26 746.778,1861.14 735.37,1925.14C730.837,1950.58 727.54,1976.19 725.717,2002.02C725.676,2002.6 725.635,2003.18 725.596,2003.77C725.532,2004.7 725.47,2005.63 725.411,2006.57C719.866,2046.75 640.327,2047.58 599.845,2048ZM848.659,1592.81C902.53,1624.42 961.794,1641.92 1024,1641.92C1086.21,1641.92 1145.47,1624.42 1199.34,1592.81C1137.82,1453.83 1070.44,1315.69 1040.23,1172.22C1034.9,1172.8 1029.48,1173.09 1024,1173.09C1018.52,1173.09 1013.1,1172.8 1007.77,1172.22C977.564,1315.69 910.177,1453.83 848.659,1592.81Z" style="fill:white;"/>
        </g>
        <path d="M-0,599.845C28.924,571.52 85.754,515.865 118.085,540.354C118.788,540.972 119.492,541.589 120.197,542.204C120.638,542.589 121.079,542.973 121.52,543.356C141.07,560.328 161.513,576.108 182.704,590.888C236.029,628.08 294.099,658.939 354.628,686.515C425.984,654.583 492.688,609.444 551.066,551.066C609.444,492.688 654.583,425.984 686.515,354.628C658.939,294.099 628.08,236.029 590.888,182.704C576.108,161.513 560.328,141.07 543.356,121.52C542.973,121.079 542.589,120.638 542.204,120.197C541.589,119.492 540.972,118.788 540.354,118.085C515.865,85.754 571.52,28.924 599.845,0C640.327,0.423 719.866,1.254 725.411,41.431C725.47,42.366 725.532,43.3 725.596,44.234C725.635,44.817 725.676,45.401 725.717,45.984C727.54,71.809 730.837,97.422 735.37,122.858C746.778,186.863 766.019,249.745 789.32,312.044C862.356,339.922 941.441,355.171 1024,355.171C1106.56,355.171 1185.64,339.922 1258.68,312.044C1281.98,249.745 1301.22,186.863 1312.63,122.858C1317.16,97.422 1320.46,71.809 1322.28,45.984C1322.32,45.401 1322.37,44.817 1322.4,44.234C1322.47,43.3 1322.53,42.366 1322.59,41.431C1328.13,1.254 1407.67,0.423 1448.15,0C1476.48,28.924 1532.13,85.754 1507.65,118.085C1507.03,118.788 1506.41,119.492 1505.8,120.197C1505.41,120.638 1505.03,121.079 1504.64,121.52C1487.67,141.07 1471.89,161.513 1457.11,182.704C1419.92,236.029 1389.06,294.099 1361.49,354.628C1393.42,425.984 1438.56,492.688 1496.93,551.066C1555.31,609.444 1622.02,654.583 1693.37,686.515C1753.9,658.939 1811.97,628.08 1865.3,590.888C1886.49,576.108 1906.93,560.328 1926.48,543.356C1926.92,542.973 1927.36,542.589 1927.8,542.204C1928.51,541.589 1929.21,540.972 1929.91,540.354C1962.25,515.865 2019.08,571.52 2048,599.845C2047.58,640.327 2046.75,719.866 2006.57,725.411C2005.63,725.47 2004.7,725.532 2003.77,725.596C2003.18,725.635 2002.6,725.676 2002.02,725.717C1976.19,727.54 1950.58,730.837 1925.14,735.37C1861.14,746.778 1798.26,766.019 1735.96,789.32C1708.08,862.356 1692.83,941.441 1692.83,1024C1692.83,1106.56 1708.08,1185.64 1735.96,1258.68C1798.26,1281.98 1861.14,1301.22 1925.14,1312.63C1950.58,1317.16 1976.19,1320.46 2002.02,1322.28C2002.6,1322.32 2003.18,1322.37 2003.77,1322.4C2004.7,1322.47 2005.63,1322.53 2006.57,1322.59C2046.75,1328.13 2047.58,1407.67 2048,1448.15C2019.08,1476.48 1962.25,1532.13 1929.91,1507.65C1929.21,1507.03 1928.51,1506.41 1927.8,1505.8C1927.36,1505.41 1926.92,1505.03 1926.48,1504.64C1906.93,1487.67 1886.49,1471.89 1865.3,1457.11C1811.97,1419.92 1753.9,1389.06 1693.37,1361.49C1622.02,1393.42 1555.31,1438.56 1496.93,1496.93C1438.56,1555.31 1393.42,1622.02 1361.49,1693.37C1389.06,1753.9 1419.92,1811.97 1457.11,1865.3C1471.89,1886.49 1487.67,1906.93 1504.64,1926.48C1505.03,1926.92 1505.41,1927.36 1505.8,1927.8C1506.41,1928.51 1507.03,1929.21 1507.65,1929.91C1532.13,1962.25 1476.48,2019.08 1448.15,2048C1407.67,2047.58 1328.13,2046.75 1322.59,2006.57C1322.53,2005.63 1322.47,2004.7 1322.4,2003.77C1322.37,2003.18 1322.32,2002.6 1322.28,2002.02C1320.46,1976.19 1317.16,1950.58 1312.63,1925.14C1301.22,1861.14 1281.98,1798.26 1258.68,1735.96C1185.64,1708.08 1106.56,1692.83 1024,1692.83C941.441,1692.83 862.356,1708.08 789.32,1735.96C766.019,1798.26 746.778,1861.14 735.37,1925.14C730.837,1950.58 727.54,1976.19 725.717,2002.02C725.676,2002.6 725.635,2003.18 725.596,2003.77C725.532,2004.7 725.47,2005.63 725.411,2006.57C719.866,2046.75 640.327,2047.58 599.845,2048C571.52,2019.08 515.865,1962.25 540.354,1929.91C540.972,1929.21 541.589,1928.51 542.204,1927.8C542.589,1927.36 542.973,1926.92 543.356,1926.48C560.328,1906.93 576.108,1886.49 590.888,1865.3C628.08,1811.97 658.939,1753.9 686.515,1693.37C654.583,1622.02 609.444,1555.31 551.066,1496.93C492.688,1438.56 425.984,1393.42 354.628,1361.49C294.099,1389.06 236.029,1419.92 182.704,1457.11C161.513,1471.89 141.07,1487.67 121.52,1504.64C121.079,1505.03 120.638,1505.41 120.197,1505.8C119.492,1506.41 118.788,1507.03 118.085,1507.65C85.754,1532.13 28.924,1476.48 -0,1448.15C0.423,1407.67 1.254,1328.13 41.431,1322.59C42.366,1322.53 43.3,1322.47 44.234,1322.4C44.817,1322.37 45.401,1322.32 45.984,1322.28C71.809,1320.46 97.422,1317.16 122.858,1312.63C186.863,1301.22 249.745,1281.98 312.044,1258.68C339.922,1185.64 355.171,1106.56 355.171,1024C355.171,941.441 339.922,862.356 312.044,789.32C249.745,766.019 186.863,746.778 122.858,735.37C97.422,730.837 71.809,727.54 45.984,725.717C45.401,725.676 44.817,725.635 44.234,725.596C43.3,725.532 42.366,725.47 41.431,725.411C1.254,719.866 0.423,640.327 -0,599.845ZM10.044,604.006C10.3,627.55 10.979,661.936 19.137,687.427C23.736,701.797 30.194,713.569 42.471,715.457C43.285,715.509 44.099,715.563 44.912,715.619C45.504,715.659 46.096,715.7 46.688,715.742C72.866,717.59 98.829,720.93 124.612,725.525C189.207,737.039 252.674,756.438 315.547,779.954C318.236,780.96 320.363,783.072 321.387,785.754C349.688,859.9 365.171,940.186 365.171,1024C365.171,1107.81 349.688,1188.1 321.387,1262.25C320.363,1264.93 318.236,1267.04 315.547,1268.05C252.674,1291.56 189.207,1310.96 124.612,1322.48C98.829,1327.07 72.866,1330.41 46.688,1332.26C46.096,1332.3 45.504,1332.34 44.912,1332.38C44.098,1332.44 43.285,1332.49 42.46,1332.55C30.192,1334.43 23.735,1346.2 19.137,1360.57C10.979,1386.06 10.3,1420.45 10.044,1443.99C26.874,1460.46 51.668,1484.3 75.461,1496.55C88.875,1503.46 101.765,1507.22 111.781,1499.87C112.394,1499.34 113.007,1498.8 113.622,1498.26C114.069,1497.87 114.517,1497.48 114.965,1497.09C134.782,1479.89 155.502,1463.89 176.984,1448.91C230.8,1411.38 289.395,1380.21 350.482,1352.38C353.094,1351.19 356.092,1351.18 358.712,1352.36C431.153,1384.77 498.872,1430.6 558.137,1489.86C617.403,1549.13 663.226,1616.85 695.643,1689.29C696.815,1691.91 696.805,1694.91 695.615,1697.52C667.785,1758.61 636.625,1817.2 599.09,1871.02C584.108,1892.5 568.111,1913.22 550.908,1933.04C550.519,1933.48 550.129,1933.93 549.739,1934.38C549.203,1934.99 548.665,1935.61 548.12,1936.23C540.782,1946.24 544.539,1959.13 551.447,1972.54C563.703,1996.33 587.538,2021.13 604.006,2037.96C627.551,2037.7 661.936,2037.02 687.427,2028.86C701.797,2024.26 713.569,2017.81 715.457,2005.53C715.509,2004.72 715.563,2003.9 715.619,2003.09C715.659,2002.5 715.7,2001.9 715.742,2001.31C717.59,1975.13 720.93,1949.17 725.525,1923.39C737.039,1858.79 756.438,1795.33 779.954,1732.45C780.96,1729.76 783.072,1727.64 785.754,1726.61C859.9,1698.31 940.186,1682.83 1024,1682.83C1107.81,1682.83 1188.1,1698.31 1262.25,1726.61C1264.93,1727.64 1267.04,1729.76 1268.05,1732.45C1291.56,1795.33 1310.96,1858.79 1322.48,1923.39C1327.07,1949.17 1330.41,1975.13 1332.26,2001.31C1332.3,2001.9 1332.34,2002.5 1332.38,2003.09C1332.44,2003.9 1332.49,2004.72 1332.55,2005.54C1334.43,2017.81 1346.2,2024.27 1360.57,2028.86C1386.06,2037.02 1420.45,2037.7 1443.99,2037.96C1460.46,2021.13 1484.3,1996.33 1496.55,1972.54C1503.46,1959.12 1507.22,1946.24 1499.87,1936.22C1499.34,1935.61 1498.8,1934.99 1498.26,1934.38C1497.87,1933.93 1497.48,1933.48 1497.09,1933.04C1479.89,1913.22 1463.89,1892.5 1448.91,1871.02C1411.38,1817.2 1380.21,1758.61 1352.38,1697.52C1351.19,1694.91 1351.18,1691.91 1352.36,1689.29C1384.77,1616.85 1430.6,1549.13 1489.86,1489.86C1549.13,1430.6 1616.85,1384.77 1689.29,1352.36C1691.91,1351.18 1694.91,1351.19 1697.52,1352.38C1758.61,1380.21 1817.2,1411.38 1871.02,1448.91C1892.5,1463.89 1913.22,1479.89 1933.04,1497.09C1933.48,1497.48 1933.93,1497.87 1934.38,1498.26C1934.99,1498.8 1935.61,1499.34 1936.23,1499.88C1946.24,1507.22 1959.13,1503.46 1972.54,1496.55C1996.33,1484.3 2021.13,1460.46 2037.96,1443.99C2037.7,1420.45 2037.02,1386.06 2028.86,1360.57C2024.26,1346.2 2017.81,1334.43 2005.53,1332.54C2004.72,1332.49 2003.9,1332.44 2003.09,1332.38C2002.5,1332.34 2001.9,1332.3 2001.31,1332.26C1975.13,1330.41 1949.17,1327.07 1923.39,1322.48C1858.79,1310.96 1795.33,1291.56 1732.45,1268.05C1729.76,1267.04 1727.64,1264.93 1726.61,1262.25C1698.31,1188.1 1682.83,1107.81 1682.83,1024C1682.83,940.186 1698.31,859.9 1726.61,785.754C1727.64,783.072 1729.76,780.96 1732.45,779.954C1795.33,756.438 1858.79,737.039 1923.39,725.525C1949.17,720.93 1975.13,717.59 2001.31,715.742C2001.9,715.7 2002.5,715.659 2003.09,715.619C2003.9,715.563 2004.72,715.509 2005.54,715.455C2017.81,713.566 2024.27,701.795 2028.86,687.427C2037.02,661.936 2037.7,627.55 2037.96,604.006C2021.13,587.538 1996.33,563.703 1972.54,551.447C1959.12,544.538 1946.24,540.781 1936.22,548.127C1935.61,548.665 1934.99,549.203 1934.38,549.739C1933.93,550.129 1933.48,550.519 1933.04,550.908C1913.22,568.111 1892.5,584.108 1871.02,599.09C1817.2,636.625 1758.61,667.785 1697.52,695.615C1694.91,696.805 1691.91,696.815 1689.29,695.643C1616.85,663.226 1549.13,617.403 1489.86,558.137C1430.6,498.872 1384.77,431.153 1352.36,358.712C1351.18,356.092 1351.19,353.094 1352.38,350.482C1380.21,289.395 1411.38,230.8 1448.91,176.984C1463.89,155.502 1479.89,134.782 1497.09,114.965C1497.48,114.517 1497.87,114.069 1498.26,113.622C1498.8,113.007 1499.34,112.394 1499.88,111.772C1507.22,101.761 1503.46,88.873 1496.55,75.461C1484.3,51.668 1460.46,26.874 1443.99,10.044C1420.45,10.3 1386.06,10.979 1360.57,19.137C1346.2,23.736 1334.43,30.194 1332.54,42.471C1332.49,43.285 1332.44,44.099 1332.38,44.912C1332.34,45.504 1332.3,46.096 1332.26,46.688C1330.41,72.866 1327.07,98.829 1322.48,124.612C1310.96,189.207 1291.56,252.674 1268.05,315.547C1267.04,318.236 1264.93,320.363 1262.25,321.387C1188.1,349.688 1107.81,365.171 1024,365.171C940.186,365.171 859.9,349.688 785.754,321.387C783.072,320.363 780.96,318.236 779.954,315.547C756.438,252.674 737.039,189.207 725.525,124.612C720.93,98.829 717.59,72.866 715.742,46.688C715.7,46.096 715.659,45.504 715.619,44.912C715.563,44.098 715.509,43.285 715.455,42.46C713.566,30.192 701.795,23.735 687.427,19.137C661.936,10.979 627.55,10.3 604.006,10.044C587.538,26.874 563.703,51.668 551.447,75.461C544.538,88.875 540.781,101.765 548.127,111.781C548.665,112.394 549.203,113.007 549.739,113.622C550.129,114.069 550.519,114.517 550.908,114.965C568.111,134.782 584.108,155.502 599.09,176.984C636.625,230.8 667.785,289.395 695.615,350.482C696.805,353.094 696.815,356.092 695.643,358.712C663.226,431.153 617.403,498.872 558.137,558.137C498.872,617.403 431.153,663.226 358.712,695.643C356.092,696.815 353.094,696.805 350.482,695.615C289.395,667.785 230.8,636.625 176.984,599.09C155.502,584.108 134.782,568.111 114.965,550.908C114.517,550.519 114.069,550.129 113.622,549.739C113.007,549.203 112.394,548.665 111.772,548.12C101.761,540.782 88.873,544.539 75.461,551.447C51.668,563.703 26.874,587.538 10.044,604.006Z" style="fill:white;"/>
    </g>
</svg>
